<?xml version="1.0" standalone="no"?>
<!DOCTYPE svg PUBLIC "-//W3C//DTD SVG 20010904//EN"
 "http://www.w3.org/TR/2001/REC-SVG-20010904/DTD/svg10.dtd">
<svg version="1.0" xmlns="http://www.w3.org/2000/svg"
 width="309.000000pt" height="309.000000pt" viewBox="0 0 309.000000 309.000000"
 preserveAspectRatio="xMidYMid meet">

<g transform="translate(0.000000,309.000000) scale(0.100000,-0.100000)"
fill="#000000" stroke="none">
<path d="M1467 2748 c-472 -34 -883 -332 -1046 -759 -88 -231 -95 -503 -19
-739 129 -399 491 -712 922 -795 451 -88 923 81 1204 431 38 46 78 101 89 122
11 20 29 53 40 72 98 174 145 453 114 672 -35 239 -160 479 -342 654 -262 251
-592 368 -962 342z m397 -72 c296 -80 531 -244 692 -486 93 -140 132 -235 165
-398 80 -397 -86 -816 -423 -1072 -161 -122 -330 -195 -536 -230 -137 -24
-238 -25 -374 -5 -304 46 -570 198 -759 433 -104 129 -167 255 -212 425 -31
118 -31 385 1 502 86 320 289 574 581 728 194 103 353 138 596 133 145 -3 184
-7 269 -30z"/>
<path d="M1445 2608 c-11 -35 -21 -69 -23 -75 -2 -8 7 -13 22 -13 16 0 26 6
26 15 0 17 55 21 65 5 3 -5 15 -10 26 -10 24 0 21 17 -17 93 -20 39 -29 47
-52 47 -25 0 -29 -6 -47 -62z m68 -8 c4 -15 0 -20 -15 -20 -14 0 -18 5 -14 16
3 9 6 20 6 25 0 17 17 1 23 -21z"/>
<path d="M1616 2618 c-10 -90 -9 -98 19 -98 21 0 25 5 25 30 0 26 3 30 29 30
16 0 31 6 35 15 4 12 -3 15 -29 15 -24 0 -35 5 -35 15 0 11 11 15 40 15 29 0
40 4 40 15 0 12 -13 15 -59 15 l-58 0 -7 -52z"/>
<path d="M1258 2638 l-36 -10 20 -71 c10 -40 21 -73 22 -75 2 -1 11 1 21 4 13
5 15 14 11 35 -7 35 12 39 39 9 18 -20 65 -28 65 -12 0 5 -11 19 -25 32 -17
16 -22 27 -15 34 5 5 10 20 10 32 0 34 -38 42 -112 22z m69 -35 c4 -12 -34
-29 -44 -19 -3 3 -3 12 1 21 7 18 37 17 43 -2z"/>
<path d="M1773 2589 c-24 -32 -43 -64 -43 -69 0 -13 33 -13 46 -1 13 13 64 1
64 -14 0 -12 37 -32 44 -23 2 1 -1 37 -6 78 -13 111 -41 119 -105 29z m67 -14
c0 -18 -5 -25 -20 -25 -24 0 -25 8 -3 32 21 23 23 23 23 -7z"/>
<path d="M1943 2543 c-13 -32 -27 -61 -30 -66 -6 -10 106 -59 118 -52 18 11 9
24 -26 36 -33 12 -43 27 -29 42 4 3 20 -1 36 -9 28 -14 48 -12 48 6 0 5 -16
14 -35 21 -19 7 -35 16 -35 20 0 17 21 19 50 4 29 -15 50 -13 50 4 0 8 -94 51
-112 51 -5 0 -21 -26 -35 -57z"/>
<path d="M1026 2545 c-27 -14 -51 -26 -53 -28 -6 -6 69 -127 79 -127 17 0 108
50 108 60 0 18 -20 20 -49 5 -37 -19 -51 -19 -51 -1 0 7 14 19 30 26 17 7 30
16 30 21 0 17 -19 18 -46 4 -36 -18 -44 -19 -44 -2 0 7 16 21 36 30 19 10 32
22 29 27 -9 14 -14 13 -69 -15z"/>
<path d="M2096 2460 c-21 -34 -37 -62 -35 -63 46 -31 91 -57 98 -57 10 0 24
30 13 30 -4 0 -18 9 -31 19 l-23 18 30 49 c22 35 27 51 19 56 -23 15 -32 8
-71 -52z"/>
<path d="M1370 2465 c-228 -47 -427 -174 -574 -365 -19 -25 -50 -77 -70 -116
-69 -139 -90 -232 -89 -394 1 -104 5 -140 28 -215 96 -329 359 -569 700 -640
93 -19 298 -19 385 -1 296 64 537 252 656 512 55 121 75 219 75 358 -1 186
-51 344 -155 489 -50 70 -159 178 -226 224 -107 73 -258 133 -380 153 -88 14
-271 11 -350 -5z m338 -35 c322 -53 603 -288 696 -583 151 -478 -150 -963
-667 -1072 -87 -19 -266 -19 -354 -1 -321 68 -575 288 -671 582 -122 375 58
791 425 982 81 42 186 78 270 92 70 11 228 11 301 0z"/>
<path d="M1441 2173 c0 -190 -2 -218 -15 -221 -9 -2 -16 3 -16 11 0 9 -11 29
-25 45 -37 44 -126 66 -251 60 -122 -5 -188 -31 -210 -84 -13 -31 -18 -34 -54
-34 l-40 0 0 -155 0 -155 130 0 c117 0 130 -2 130 -17 0 -35 -22 -96 -51 -143
-16 -26 -29 -52 -29 -58 0 -7 49 -12 143 -15 78 -2 167 -10 197 -17 100 -23
90 11 91 -302 l1 -278 174 0 174 0 0 274 0 273 133 7 c260 14 372 31 397 62
30 35 -66 146 -155 180 -25 9 -45 21 -45 25 0 5 52 9 116 9 102 0 115 2 110
16 -3 9 -20 78 -38 155 l-31 139 -241 2 -241 3 -5 169 -5 168 -160 49 c-88 26
-165 48 -172 49 -9 0 -12 -53 -12 -217z m-154 -158 c27 -8 57 -23 66 -33 16
-18 16 -20 -1 -35 -72 -65 -345 -61 -386 6 -9 14 -6 21 14 37 14 10 41 23 60
28 55 15 191 14 247 -3z m-263 -140 c65 -20 208 -19 275 1 29 8 55 13 58 10
10 -10 -18 -101 -43 -138 -54 -83 -178 -100 -259 -36 -28 22 -85 129 -85 161
0 9 1 17 3 17 1 0 24 -7 51 -15z m772 -246 c7 -6 20 -33 29 -60 9 -27 22 -49
29 -49 21 0 47 35 53 74 l6 37 41 -6 c50 -9 59 -16 81 -60 19 -42 37 -44 62
-10 18 25 19 26 56 10 43 -18 127 -91 127 -110 0 -58 -894 -75 -941 -19 -27
32 38 127 112 165 52 26 62 24 100 -16 46 -48 62 -45 88 16 l21 52 62 -7 c33
-3 67 -11 74 -17z m-429 -41 c-28 -29 -57 -62 -63 -73 -11 -19 -12 -18 -27 17
-13 32 -21 77 -18 101 1 4 37 7 81 7 l80 0 -53 -52z m241 40 c-3 -7 -11 -13
-18 -13 -7 0 -15 6 -17 13 -3 7 4 12 17 12 13 0 20 -5 18 -12z m262 -9 c0 -11
-4 -17 -10 -14 -5 3 -10 13 -10 21 0 8 5 14 10 14 6 0 10 -9 10 -21z m-659 1
c1 -5 2 -13 3 -17 1 -5 5 -24 9 -44 4 -21 19 -53 32 -73 l24 -36 -103 0 -103
0 23 46 c13 25 26 65 30 90 6 43 7 44 45 44 22 0 40 -4 40 -10z"/>
<path d="M860 2440 c-25 -16 -45 -33 -45 -38 0 -13 79 -111 90 -111 6 -1 17 4
25 9 12 8 11 13 -9 33 -29 31 -13 43 29 22 23 -12 35 -13 50 -5 29 15 25 27
-14 40 -24 8 -33 16 -29 26 6 16 -23 54 -41 54 -6 0 -31 -14 -56 -30z m54 -19
c3 -4 -3 -16 -14 -26 -19 -17 -20 -17 -26 0 -9 23 27 47 40 26z"/>
<path d="M2296 2328 c-41 -37 -43 -72 -8 -108 33 -33 82 -41 82 -15 0 9 -8 18
-17 21 -54 17 -63 34 -32 63 32 30 55 26 68 -10 6 -18 16 -29 23 -27 43 15
-12 98 -63 98 -15 0 -39 -10 -53 -22z"/>
<path d="M707 2300 l-42 -40 35 -30 c19 -17 47 -39 61 -50 l27 -20 32 36 c42
48 39 89 -9 121 -19 13 -40 23 -48 23 -8 0 -33 -18 -56 -40z m86 -25 c19 -14
20 -46 2 -52 -16 -5 -69 42 -61 55 10 16 37 15 59 -3z"/>
<path d="M2417 2172 c-70 -16 -79 -28 -36 -49 33 -17 51 -43 39 -58 -6 -8 -5
-18 3 -29 11 -15 18 -10 64 47 48 60 51 66 37 86 -17 24 -15 24 -107 3z m51
-48 c-9 -9 -21 -13 -27 -9 -16 10 -3 25 22 25 20 0 20 -1 5 -16z"/>
<path d="M592 2150 c-14 -23 -13 -25 61 -115 21 -25 27 -28 41 -16 12 10 14
17 5 27 -14 17 14 66 34 59 6 -3 18 4 24 15 14 22 14 22 -72 35 -22 4 -49 8
-60 11 -13 3 -25 -3 -33 -16z m87 -36 c3 -3 0 -9 -7 -16 -8 -8 -15 -7 -26 5
-9 9 -16 18 -16 22 0 6 40 -3 49 -11z"/>
<path d="M544 2042 c-12 -8 -29 -37 -43 -75 -9 -23 -6 -26 59 -51 38 -15 74
-25 80 -21 18 11 11 35 -15 45 -22 8 -23 12 -13 40 8 26 7 34 -7 50 -19 21
-42 25 -61 12z m36 -62 c0 -22 -7 -25 -29 -11 -16 10 -6 31 15 31 8 0 14 -9
14 -20z"/>
<path d="M2520 2029 c-63 -22 -75 -32 -67 -54 6 -14 10 -14 43 0 21 8 39 13
42 11 2 -3 -8 -20 -22 -39 -27 -36 -33 -62 -16 -72 6 -4 42 5 80 20 63 24 69
29 60 46 -10 18 -13 18 -47 4 -20 -8 -38 -14 -39 -12 -2 2 9 21 25 42 27 37
31 76 7 74 -6 0 -36 -9 -66 -20z"/>
<path d="M2632 1843 c3 -27 1 -28 -55 -37 -51 -7 -58 -11 -55 -30 3 -22 7 -23
86 -10 38 6 42 4 42 -15 0 -14 6 -21 20 -21 21 0 21 -3 1 100 -9 45 -44 57
-39 13z"/>
<path d="M520 1782 c-67 -15 -75 -20 -78 -42 -2 -22 6 -30 65 -60 36 -19 70
-36 75 -38 4 -2 8 8 8 22 0 14 -4 26 -10 26 -19 0 -10 49 10 60 19 10 29 51
13 49 -5 0 -42 -8 -83 -17z m20 -57 c0 -18 -8 -18 -40 0 l-25 14 33 1 c22 0
32 -5 32 -15z"/>
<path d="M2593 1683 c-48 -4 -53 -6 -53 -28 0 -24 1 -24 68 -19 86 7 91 9 88
31 -3 20 -19 22 -103 16z"/>
<path d="M560 1590 l0 -40 -64 0 c-59 0 -65 -2 -63 -20 1 -18 8 -20 79 -20
l78 0 0 60 c0 47 -3 60 -15 60 -11 0 -15 -11 -15 -40z"/>
<path d="M2538 1541 c-2 -52 0 -61 14 -61 12 0 18 10 20 33 3 32 3 32 66 35
54 3 62 6 62 22 0 18 -7 20 -57 20 -32 0 -68 3 -80 6 -20 5 -21 2 -25 -55z"/>
<path d="M573 1472 c-10 -6 -10 -17 -3 -42 6 -19 10 -36 10 -37 0 -2 -9 -3
-19 -3 -13 0 -21 9 -26 30 -4 17 -13 30 -21 30 -11 0 -13 -9 -8 -41 6 -33 4
-41 -7 -37 -7 2 -18 21 -22 41 -9 36 -20 46 -32 28 -6 -10 13 -101 24 -113 5
-5 140 18 148 26 5 5 -18 110 -26 118 -3 4 -12 4 -18 0z"/>
<path d="M2530 1420 c-13 -13 -20 -33 -20 -60 0 -48 32 -74 88 -72 45 2 72 31
72 78 0 47 -29 74 -80 74 -27 0 -47 -7 -60 -20z m85 -32 c46 -21 13 -67 -39
-54 -32 8 -43 30 -26 51 15 18 31 19 65 3z"/>
<path d="M523 1284 c-38 -14 -42 -18 -33 -35 13 -23 19 -23 70 -3 46 18 70 13
70 -14 0 -14 -14 -25 -52 -39 -42 -15 -52 -23 -50 -38 2 -11 5 -21 6 -23 2 -1
29 7 61 20 72 27 85 51 59 105 -16 32 -24 38 -54 40 -19 1 -54 -5 -77 -13z"/>
<path d="M2446 1194 c-19 -19 -30 -58 -22 -79 8 -23 32 -18 60 12 14 15 28 24
32 20 4 -4 -1 -16 -10 -26 -10 -11 -16 -25 -14 -32 7 -22 48 29 48 60 0 40
-25 47 -56 16 -14 -14 -29 -25 -34 -25 -17 0 -11 19 10 30 20 11 28 40 11 40
-5 0 -17 -7 -25 -16z"/>
<path d="M660 1133 c0 -13 14 -27 34 -39 11 -6 21 -15 23 -21 6 -18 -27 -43
-58 -43 -27 0 -33 8 -30 36 1 6 -5 17 -14 24 -12 10 -16 9 -21 -4 -15 -39 28
-106 69 -106 12 0 37 9 55 20 27 17 32 26 32 58 0 45 -29 82 -65 82 -14 0 -25
-3 -25 -7z"/>
<path d="M2376 1084 c-4 -9 -1 -23 6 -31 10 -13 14 -13 25 3 9 13 10 21 2 31
-15 17 -26 16 -33 -3z"/>
<path d="M2311 1004 c-42 -53 -14 -93 42 -60 38 21 48 13 16 -13 l-24 -20 22
-1 c26 0 56 40 51 67 -4 23 -41 29 -58 8 -14 -16 -40 -21 -40 -6 0 5 9 12 19
16 11 3 22 12 25 20 10 26 -31 17 -53 -11z"/>
<path d="M756 979 c-13 -20 -13 -26 5 -60 16 -32 17 -39 5 -39 -8 0 -21 12
-28 26 -15 30 -34 29 -30 -1 3 -27 50 -67 75 -63 34 5 42 30 22 72 -10 20 -15
39 -12 43 12 11 37 -7 37 -25 0 -22 23 -46 33 -35 16 15 5 54 -20 78 -34 31
-67 32 -87 4z"/>
<path d="M2237 925 c-14 -10 -15 -14 -3 -24 14 -11 46 -5 46 9 0 19 -25 28
-43 15z"/>
<path d="M895 891 c-3 -6 8 -20 25 -32 53 -40 34 -67 -20 -29 -39 28 -54 5
-17 -25 47 -37 26 -50 -23 -15 -21 15 -31 17 -36 9 -4 -8 10 -27 37 -50 24
-21 46 -39 49 -39 3 0 27 26 54 57 l48 57 -44 38 c-44 38 -62 45 -73 29z"/>
<path d="M2151 856 c-13 -13 -21 -32 -19 -43 4 -21 45 -30 61 -14 13 13 37 15
37 3 0 -4 -15 -13 -32 -20 -26 -10 -30 -14 -18 -22 30 -19 93 41 74 71 -6 11
-44 8 -76 -6 -11 -4 -18 -3 -18 4 0 7 14 17 30 22 36 13 39 29 7 29 -13 0 -34
-11 -46 -24z"/>
<path d="M2061 796 c-9 -10 -8 -16 4 -26 21 -17 51 6 34 26 -6 8 -15 14 -19
14 -4 0 -13 -6 -19 -14z"/>
<path d="M1195 658 c-9 -29 -18 -59 -20 -65 -3 -7 4 -13 14 -13 12 0 23 12 31
33 l12 32 17 -45 c22 -60 46 -64 62 -11 13 43 18 48 36 30 6 -6 21 -9 34 -7
18 2 24 9 24 28 0 21 -6 26 -35 30 -20 4 -41 10 -48 14 -8 5 -16 -3 -23 -23
-15 -41 -23 -39 -38 9 -18 60 -45 55 -66 -12z m193 -15 c-5 -25 -28 -28 -28
-4 0 12 6 21 16 21 9 0 14 -7 12 -17z"/>
<path d="M1858 699 c-10 -5 -18 -17 -18 -24 0 -20 26 -19 34 0 11 29 28 16 21
-15 -6 -26 -4 -30 15 -30 15 0 20 -5 18 -17 -2 -13 -11 -17 -30 -15 -36 4 -45
-16 -12 -24 56 -14 103 40 64 73 -10 9 -16 22 -13 30 11 28 -43 43 -79 22z"/>
<path d="M1737 662 c-23 -25 -21 -64 4 -96 35 -44 99 -29 99 25 0 33 -32 53
-62 38 -24 -13 -27 -11 -21 10 3 13 13 19 28 18 36 -3 35 18 -1 21 -20 2 -36
-3 -47 -16z m70 -68 c9 -25 -12 -38 -31 -19 -9 9 -14 21 -11 26 10 14 35 10
42 -7z"/>
<path d="M1508 637 c-35 -28 -36 -41 -3 -33 23 6 24 5 20 -39 -5 -40 -3 -45
15 -45 18 0 20 7 20 70 0 78 -7 84 -52 47z"/>
<path d="M1633 641 c-28 -24 -30 -45 -4 -36 17 5 20 0 23 -32 2 -27 8 -39 21
-41 19 -4 22 22 11 91 -7 41 -18 45 -51 18z"/>
</g>
</svg>
